<?xml version="1.0" encoding="utf-8"?>
<!-- Generator: Adobe Illustrator 15.1.0, SVG Export Plug-In  -->
<!DOCTYPE svg PUBLIC "-//W3C//DTD SVG 1.1//EN" "http://www.w3.org/Graphics/SVG/1.1/DTD/svg11.dtd" [
	<!ENTITY ns_flows "http://ns.adobe.com/Flows/1.0/">
]>
<svg version="1.1"
	 xmlns="http://www.w3.org/2000/svg" xmlns:xlink="http://www.w3.org/1999/xlink" xmlns:a="http://ns.adobe.com/AdobeSVGViewerExtensions/3.0/"
	 x="0px" y="0px" width="321px" height="88px" viewBox="-9.871 -7.966 321 88"
	 overflow="visible" enable-background="new -9.871 -7.966 321 88" xml:space="preserve">
<defs>
</defs>
<path fill="#020202" d="M61.371,45.979V27.554c0-1.211,0.591-1.817,1.775-1.817h1.69c0.577,0,1.024,0.159,1.342,0.476
	c0.317,0.317,0.475,0.764,0.475,1.342v2.071l-0.126,1.521h0.084c0.479-1.465,1.303-2.765,2.472-3.898
	c1.169-1.134,2.479-1.701,3.93-1.701c0.592,0,1.014,0.148,1.268,0.443c0.254,0.296,0.38,0.754,0.38,1.374v1.69
	c0,0.578-0.166,1.025-0.497,1.342c-0.331,0.317-0.785,0.476-1.363,0.476c-1.282,0-2.388,0.395-3.317,1.183
	c-0.93,0.789-1.606,1.775-2.028,2.958c-0.423,1.183-0.634,2.472-0.634,3.867v7.1c0,1.212-0.591,1.817-1.775,1.817h-1.901
	C61.962,47.796,61.371,47.191,61.371,45.979z"/>
<path fill="#020202" d="M75.618,36.766c0-3.409,1.039-6.187,3.117-8.335c2.078-2.148,4.771-3.223,8.082-3.223
	c3.057,0,5.452,0.976,7.185,2.927c1.732,1.951,2.599,4.483,2.599,7.596c0,0.493-0.187,0.927-0.56,1.3
	c-0.374,0.373-0.821,0.56-1.342,0.56h-13.46c0.169,1.923,0.877,3.414,2.124,4.474c1.247,1.062,2.743,1.591,4.49,1.591
	c1.676,0,3.261-0.478,4.754-1.434c0.394-0.199,0.753-0.299,1.078-0.299c0.563,0,1.014,0.296,1.352,0.888l0.528,0.866
	c0.197,0.38,0.296,0.732,0.296,1.057c0,0.549-0.303,1.007-0.909,1.373c-2.338,1.479-4.832,2.219-7.48,2.219
	c-2.367,0-4.462-0.528-6.286-1.585c-1.825-1.057-3.208-2.458-4.152-4.205C76.09,40.789,75.618,38.866,75.618,36.766z M81.365,34.252
	h9.784c-0.042-1.507-0.476-2.697-1.3-3.571c-0.824-0.873-1.877-1.31-3.159-1.31c-1.395,0-2.564,0.44-3.508,1.321
	C82.239,31.572,81.633,32.759,81.365,34.252z"/>
<path fill="#020202" d="M98.882,41.69c0-0.888,0.155-1.701,0.465-2.44c0.31-0.74,0.719-1.363,1.226-1.87
	c0.507-0.508,1.12-0.958,1.838-1.353c0.718-0.394,1.455-0.705,2.208-0.93s1.571-0.412,2.451-0.56s1.69-0.247,2.43-0.296
	c0.739-0.049,1.497-0.074,2.271-0.074h0.909v-0.528c0-1.353-0.377-2.338-1.131-2.958c-0.753-0.62-1.743-0.93-2.969-0.93
	c-1.55,0-3.078,0.416-4.585,1.247c-0.38,0.169-0.726,0.253-1.036,0.253c-0.606,0-1.071-0.324-1.395-0.972l-0.422-0.824
	c-0.198-0.38-0.296-0.726-0.296-1.036c0-0.563,0.324-1.028,0.972-1.395c2.353-1.211,4.761-1.817,7.227-1.817
	c2.86,0,5.1,0.771,6.72,2.314c1.62,1.542,2.43,3.701,2.43,6.477v11.98c0,1.212-0.611,1.817-1.832,1.817h-1.492
	c-1.193,0-1.79-0.605-1.79-1.817v-0.866l0.084-0.951h-0.084c-0.056,0.113-0.14,0.265-0.252,0.455
	c-0.112,0.189-0.375,0.524-0.788,1.003c-0.413,0.479-0.861,0.898-1.344,1.258s-1.13,0.69-1.943,0.993
	c-0.812,0.303-1.666,0.454-2.562,0.454c-2.057,0-3.79-0.616-5.198-1.849C99.586,45.244,98.882,43.648,98.882,41.69z M104.334,41.249
	c0,0.794,0.296,1.479,0.888,2.053c0.591,0.574,1.408,0.86,2.451,0.86c1.45,0,2.659-0.612,3.624-1.839s1.447-2.562,1.447-4.009
	v-0.808h-0.908c-0.845,0-1.638,0.042-2.377,0.127c-0.739,0.086-1.528,0.248-2.367,0.489c-0.838,0.241-1.507,0.628-2.007,1.159
	S104.334,40.469,104.334,41.249z"/>
<path fill="#020202" d="M121.999,36.735c0-3.47,0.93-6.259,2.789-8.366s4.261-3.161,7.206-3.161c0.901,0,1.739,0.108,2.514,0.325
	s1.395,0.475,1.86,0.775s0.862,0.604,1.194,0.911c0.331,0.307,0.56,0.565,0.687,0.775l0.19,0.335h0.084
	c-0.057-0.365-0.084-0.78-0.084-1.243v-8.2c0-1.208,0.591-1.812,1.775-1.812h1.901c1.184,0,1.775,0.606,1.775,1.817v27.089
	c0,1.212-0.591,1.817-1.775,1.817h-1.606c-1.183,0-1.775-0.552-1.775-1.657v-0.87l0.084-0.786h-0.084
	c-0.056,0.1-0.134,0.237-0.232,0.414c-0.099,0.178-0.349,0.485-0.75,0.924s-0.842,0.827-1.321,1.167s-1.134,0.647-1.965,0.923
	c-0.832,0.276-1.719,0.414-2.663,0.414c-2.972,0-5.35-1.066-7.131-3.199C122.89,42.993,121.999,40.196,121.999,36.735z
	 M127.535,36.735c0,2.088,0.507,3.764,1.521,5.025c1.014,1.264,2.338,1.895,3.972,1.895c1.564,0,2.877-0.585,3.941-1.756
	c1.063-1.171,1.595-2.906,1.595-5.207c0-1.862-0.479-3.463-1.437-4.803s-2.31-2.011-4.057-2.011c-1.564,0-2.877,0.614-3.941,1.841
	C128.066,32.947,127.535,34.619,127.535,36.735z"/>
<path fill="#020202" d="M149.363,20.179V18.89c0-1.211,0.591-1.817,1.775-1.817h1.901c0.577,0,1.025,0.159,1.342,0.476
	c0.317,0.317,0.476,0.764,0.476,1.342v1.289c0,1.183-0.605,1.775-1.817,1.775h-1.901C149.954,21.954,149.363,21.362,149.363,20.179z
	 M149.363,45.979V27.554c0-1.211,0.591-1.817,1.775-1.817h1.901c1.184,0,1.775,0.606,1.775,1.817v18.425
	c0,1.212-0.592,1.817-1.775,1.817h-1.901C149.954,47.796,149.363,47.191,149.363,45.979z"/>
<path fill="#020202" d="M158.575,28.589V27.85c0-1.211,0.598-1.817,1.792-1.817h1.251v-4.5c0-0.578,0.159-1.025,0.479-1.342
	c0.319-0.317,0.77-0.476,1.353-0.476h1.725c0.582,0,1.032,0.158,1.353,0.476c0.319,0.316,0.479,0.764,0.479,1.342v4.5h3.185
	c0.573,0,1.017,0.159,1.331,0.475c0.314,0.317,0.472,0.765,0.472,1.342v0.739c0,1.212-0.587,1.817-1.76,1.817h-3.228v8.558
	c0,0.774,0.108,1.44,0.325,1.996c0.217,0.557,0.514,0.976,0.891,1.258c0.378,0.282,0.745,0.482,1.101,0.602
	c0.356,0.12,0.759,0.208,1.206,0.265c0.671,0.07,1.139,0.236,1.404,0.496c0.266,0.261,0.398,0.688,0.398,1.278v1.332
	c0,0.634-0.18,1.095-0.539,1.384c-0.359,0.288-0.926,0.433-1.701,0.433c-0.816,0-1.619-0.088-2.408-0.264s-1.563-0.468-2.324-0.877
	c-0.761-0.408-1.423-0.912-1.986-1.511s-1.021-1.366-1.373-2.303c-0.353-0.938-0.529-1.983-0.529-3.139v-9.508h-1.145
	C159.158,30.406,158.575,29.801,158.575,28.589z"/>
<path fill="#020202" d="M174.359,28.589V27.85c0-1.211,0.583-1.817,1.749-1.817h1.062v-1.036c0-1.324,0.225-2.497,0.677-3.518
	c0.45-1.021,0.996-1.81,1.637-2.367c0.642-0.556,1.377-1.01,2.209-1.363c0.83-0.352,1.556-0.581,2.176-0.687
	c0.62-0.106,1.205-0.159,1.754-0.159h0.634c1.184,0,1.775,0.601,1.775,1.801v1.11c0,1.089-0.615,1.675-1.846,1.759
	c-0.433,0.028-0.807,0.082-1.121,0.16s-0.674,0.231-1.079,0.458c-0.406,0.228-0.721,0.594-0.943,1.099
	c-0.225,0.504-0.336,1.141-0.336,1.909v0.832h2.932c1.173,0,1.76,0.606,1.76,1.817v0.739c0,1.212-0.587,1.817-1.76,1.817h-2.932
	v15.573c0,1.212-0.61,1.817-1.831,1.817h-1.916c-1.193,0-1.789-0.605-1.789-1.817V30.406h-1.062
	C174.942,30.406,174.359,29.801,174.359,28.589z"/>
<path fill="#020202" d="M188.716,36.777c0-2.199,0.539-4.187,1.616-5.964c1.078-1.776,2.536-3.155,4.377-4.135
	c1.84-0.98,3.867-1.47,6.083-1.47c2.215,0,4.245,0.49,6.09,1.47c1.845,0.979,3.311,2.358,4.397,4.135
	c1.087,1.777,1.631,3.765,1.631,5.964c0,2.21-0.544,4.201-1.631,5.975s-2.549,3.146-4.387,4.116
	c-1.838,0.972-3.871,1.457-6.101,1.457s-4.257-0.485-6.083-1.457c-1.826-0.971-3.282-2.343-4.366-4.116
	C189.258,40.978,188.716,38.987,188.716,36.777z M194.252,36.777c0,2.018,0.632,3.669,1.895,4.952
	c1.263,1.284,2.811,1.926,4.646,1.926c1.834,0,3.39-0.642,4.667-1.926c1.276-1.283,1.915-2.935,1.915-4.952
	c0-2.003-0.639-3.654-1.915-4.952c-1.277-1.298-2.833-1.947-4.667-1.947c-1.835,0-3.383,0.649-4.646,1.947
	C194.884,33.123,194.252,34.773,194.252,36.777z"/>
<path fill="#020202" d="M217.01,45.979V27.554c0-1.211,0.592-1.817,1.774-1.817h1.69c0.577,0,1.025,0.159,1.342,0.476
	c0.317,0.317,0.476,0.764,0.476,1.342v2.071l-0.127,1.521h0.085c0.479-1.465,1.303-2.765,2.472-3.898
	c1.17-1.134,2.479-1.701,3.931-1.701c0.592,0,1.015,0.148,1.268,0.443c0.254,0.296,0.381,0.754,0.381,1.374v1.69
	c0,0.578-0.166,1.025-0.497,1.342c-0.331,0.317-0.785,0.476-1.362,0.476c-1.282,0-2.388,0.395-3.318,1.183
	c-0.93,0.789-1.605,1.775-2.028,2.958c-0.422,1.183-0.634,2.472-0.634,3.867v7.1c0,1.212-0.592,1.817-1.774,1.817h-1.902
	C217.602,47.796,217.01,47.191,217.01,45.979z"/>
<path fill="#020202" d="M231.361,46.048v-1.869c0-1.139,0.605-1.708,1.817-1.708h1.901c1.212,0,1.817,0.569,1.817,1.708v1.869
	c0,1.165-0.605,1.748-1.817,1.748h-1.901C231.967,47.796,231.361,47.213,231.361,46.048z"/>
<path fill="#020202" d="M241.99,45.979V27.554c0-1.211,0.592-1.817,1.774-1.817h1.69c1.184,0,1.775,0.606,1.775,1.817v1.331
	l-0.085,0.993h0.085c0.619-1.226,1.577-2.31,2.874-3.254c1.295-0.944,2.746-1.416,4.353-1.416c3.386,0,5.547,1.515,6.481,4.543
	h0.085c0.619-1.239,1.614-2.307,2.985-3.201c1.371-0.894,2.88-1.342,4.525-1.342c4.843,0,7.265,2.796,7.265,8.389v12.382
	c0,1.212-0.61,1.817-1.831,1.817h-1.874c-1.222,0-1.831-0.605-1.831-1.817V34.632c0-0.69-0.039-1.279-0.116-1.764
	c-0.077-0.486-0.222-0.94-0.433-1.363c-0.21-0.422-0.52-0.74-0.927-0.951c-0.408-0.211-0.921-0.317-1.539-0.317
	c-1.181,0-2.206,0.377-3.077,1.13c-0.871,0.754-1.511,1.697-1.918,2.831c-0.408,1.134-0.611,2.363-0.611,3.688v8.093
	c0,1.212-0.597,1.817-1.789,1.817h-1.916c-1.222,0-1.831-0.605-1.831-1.817V34.632c0-0.535-0.019-0.997-0.054-1.384
	c-0.035-0.388-0.115-0.782-0.242-1.184c-0.127-0.402-0.293-0.729-0.497-0.982c-0.204-0.254-0.489-0.458-0.855-0.613
	s-0.803-0.232-1.311-0.232c-0.93,0-1.768,0.225-2.514,0.676c-0.747,0.451-1.346,1.046-1.797,1.786
	c-0.45,0.739-0.796,1.553-1.035,2.44c-0.239,0.888-0.359,1.804-0.359,2.747v8.093c0,1.212-0.591,1.817-1.774,1.817h-1.902
	C242.582,47.796,241.99,47.191,241.99,45.979z"/>
<path fill="#020202" d="M279.518,36.766c0-3.409,1.038-6.187,3.116-8.335s4.772-3.223,8.083-3.223c3.057,0,5.451,0.976,7.184,2.927
	c1.733,1.951,2.6,4.483,2.6,7.596c0,0.493-0.187,0.927-0.56,1.3c-0.374,0.373-0.821,0.56-1.343,0.56h-13.46
	c0.17,1.923,0.877,3.414,2.124,4.474c1.246,1.062,2.743,1.591,4.49,1.591c1.676,0,3.261-0.478,4.754-1.434
	c0.395-0.199,0.754-0.299,1.078-0.299c0.563,0,1.014,0.296,1.353,0.888l0.528,0.866c0.196,0.38,0.295,0.732,0.295,1.057
	c0,0.549-0.303,1.007-0.908,1.373c-2.339,1.479-4.832,2.219-7.48,2.219c-2.366,0-4.462-0.528-6.286-1.585s-3.208-2.458-4.151-4.205
	C279.989,40.789,279.518,38.866,279.518,36.766z M285.265,34.252h9.783c-0.042-1.507-0.475-2.697-1.299-3.571
	c-0.824-0.873-1.878-1.31-3.159-1.31c-1.395,0-2.564,0.44-3.508,1.321C286.138,31.572,285.532,32.759,285.265,34.252z"/>
<path stroke="#FFFFFF" stroke-miterlimit="10" d="M49.384,3.941c-5.118,2.79-11.985,4.626-18.434,4.626
	c-4.914,0-9.583-1.068-13.044-3.594v8.137c3.474,1.371,7.599,1.952,11.826,1.952c3.642-0.016,7.271-0.405,10.834-1.162v41.312
	c3.283-0.655,6.344-1.725,8.817-3.096V3.941z"/>
<path stroke="#FFFFFF" stroke-miterlimit="10" d="M9.213,4.122v13.203c2.666,1.862,5.598,3.303,8.693,4.285v0.02
	c3.917,1.249,8.003,1.891,12.113,1.901c0.587,0,1.167-0.016,1.737-0.043v32.191c-0.002,0-0.005,0-0.008,0v5.649
	c2.964-0.05,5.917-0.387,8.817-1.002v-5.243c0.002-0.001,0.005,0,0.008,0V13.768c-3.563,0.756-7.197,1.145-10.838,1.161
	c-4.178,0-8.253-0.571-11.705-1.909C13.812,11.346,10.546,8.508,9.213,4.122z"/>
<path stroke="#FFFFFF" stroke-miterlimit="10" d="M0.5,4.351v44.132c3.181,13.723,18.426,19.034,29.747,19.034
	c0.588,0,1.168-0.014,1.737-0.042c0-1.028-0.084-2.045-0.084-3.073c0-1.027-0.004-3.094-0.048-3.094v-5.007c0.004,0,0.008,0,0.012,0
	V23.417c-0.572,0.029-1.157,0.046-1.752,0.046c-4.154-0.013-8.282-0.67-12.241-1.944v0.031c-3.042-0.968-5.924-2.382-8.553-4.2
	v-0.207C5.096,14.136,1.802,9.941,0.5,4.351z"/>
</svg>
